<?xml version="1.0" encoding="utf-8"?>
<!-- Generator: Adobe Illustrator 27.8.1, SVG Export Plug-In . SVG Version: 6.00 Build 0)  -->
<svg version="1.1" id="Слой_1" xmlns="http://www.w3.org/2000/svg" xmlns:xlink="http://www.w3.org/1999/xlink" x="0px" y="0px"
	 viewBox="0 0 413.18 87.64" style="enable-background:new 0 0 413.18 87.64;" xml:space="preserve">
<style type="text/css">
	.st0{fill:#020203;}
	.st1{fill:#FFFFFF;}
	.st2{fill:#EC670D;}
	.st3{fill-rule:evenodd;clip-rule:evenodd;fill:#020203;}
</style>
<g>
	<path class="st0" d="M25.11,45.98l4-32.68l7.26,0.89l-1.58,12.88l4.57,0.56L49.4,15.79l8.46,1.04l-12.8,14.48l9.18,18.25
		l-8.94-1.09l-6.76-14.1l-4.57-0.56l-1.6,13.07L25.11,45.98z"/>
	<path class="st0" d="M65.69,39.05c0.19-1.28,0.4-2.75,0.64-4.41s0.48-3.41,0.74-5.25c0.26-1.84,0.51-3.73,0.74-5.67
		c0.24-1.94,0.47-3.8,0.69-5.6l24.56,3.01l-4,32.68l-7.26-0.89l3.17-25.9l-10.24-1.25c-0.32,2.33-0.66,4.86-1.03,7.58
		c-0.37,2.72-0.72,5.23-1.07,7.53c-0.63,4.05-1.89,6.75-3.77,8.1c-1.89,1.35-4.56,1.81-8.02,1.38l-2.79-0.34l0.85-6.97l1.63,0.2
		c1.41,0.17,2.55-0.01,3.43-0.55C64.85,42.15,65.42,40.93,65.69,39.05z"/>
	<path class="st0" d="M120.36,24.47l7.96,34.15l-7.69-0.94l-1.72-7.87l-13.07-1.6l-3.52,7.23l-7.5-0.92l15.97-31.22L120.36,24.47z
		 M108.89,42.05l8.6,1.05l-2.81-12.88L108.89,42.05z"/>
	<path class="st0" d="M133.17,52.34l3.32,0.41c1.14-0.77,2.14-2.02,3.02-3.75c0.88-1.73,1.46-3.65,1.75-5.76
		c0.29-2.11,0.61-4.58,0.95-7.4c0.35-2.82,0.69-5.67,1.05-8.55l24.51,3l-3.17,25.9l4.71,0.58l-0.83,6.78l-36.1-4.42L133.17,52.34z
		 M148.08,44.85c-0.29,1.82-0.73,3.46-1.34,4.93c-0.6,1.47-1.41,2.78-2.43,3.92l13.02,1.6l2.34-19.13l-10.19-1.25
		c-0.23,1.57-0.46,3.24-0.71,5.03C148.53,41.75,148.3,43.38,148.08,44.85z"/>
	<path class="st0" d="M245.64,63.07l-4.05-32.68l7.26-0.9l1.59,12.88l4.57-0.57l6.86-13.93l8.46-1.05l-8.9,17.15l13.33,15.47
		l-8.94,1.11l-9.98-12.04l-4.57,0.57l1.62,13.07L245.64,63.07z"/>
	<path class="st0" d="M283.32,46.5c-0.13-1.28-0.28-2.76-0.45-4.43c-0.17-1.67-0.36-3.43-0.56-5.27c-0.2-1.85-0.41-3.74-0.65-5.68
		c-0.24-1.94-0.47-3.8-0.69-5.6l24.55-3.04l4.05,32.68l-7.26,0.9l-3.21-25.9l-10.23,1.27c0.26,2.34,0.54,4.88,0.84,7.6
		c0.3,2.73,0.57,5.25,0.79,7.56c0.37,4.08-0.19,7.01-1.7,8.77c-1.51,1.76-3.99,2.86-7.45,3.29L278.56,59l-0.86-6.97l1.63-0.2
		c1.41-0.17,2.48-0.63,3.2-1.37C283.26,49.71,283.52,48.39,283.32,46.5z"/>
	<path class="st0" d="M332.83,19.1l16.01,31.2l-7.69,0.95l-3.58-7.22l-13.07,1.62l-1.66,7.87l-7.5,0.93l7.92-34.16L332.83,19.1z
		 M325.96,38.93l8.6-1.06l-5.85-11.81L325.96,38.93z"/>
	<path class="st0" d="M352.01,43.02l3.31-0.41c0.91-1.02,1.59-2.48,2.02-4.37s0.53-3.9,0.3-6.02c-0.23-2.12-0.52-4.59-0.87-7.41
		c-0.35-2.82-0.7-5.67-1.06-8.55l24.51-3.03l3.21,25.9l4.71-0.58l0.84,6.78l-36.09,4.47L352.01,43.02z M364.66,32.13
		c0.16,1.83,0.13,3.54-0.1,5.11s-0.7,3.04-1.41,4.39l13.02-1.61L373.8,20.9l-10.19,1.26c0.16,1.57,0.34,3.26,0.53,5.06
		C364.34,29.02,364.51,30.66,364.66,32.13z"/>
	<path class="st1" d="M205.95,87.64c19.21,0,34.78-15.57,34.78-34.78c0-19.21-15.57-34.78-34.78-34.78
		c-19.21,0-34.78,15.57-34.78,34.78C171.17,72.07,186.75,87.64,205.95,87.64z"/>
	<path class="st2" d="M205.95,81.48c15.81,0,28.62-12.81,28.62-28.62s-12.81-28.62-28.62-28.62c-15.81,0-28.62,12.81-28.62,28.62
		S190.15,81.48,205.95,81.48z"/>
	<path class="st1" d="M206.35,63.32c2.32,0,4.1-0.54,5.33-1.62c1.23-1.08,2.05-2.49,2.47-4.24l7.31,1.21
		c-0.71,3.58-2.29,6.34-4.75,8.26c-2.46,1.92-5.89,2.88-10.31,2.88c-2.39,0-4.58-0.36-6.56-1.09c-1.98-0.73-3.67-1.79-5.06-3.2
		c-1.39-1.4-2.47-3.17-3.24-5.3c-0.78-2.13-1.16-4.58-1.16-7.36c0-2.87,0.4-5.38,1.21-7.5c0.81-2.13,1.92-3.89,3.34-5.28
		c1.42-1.39,3.11-2.43,5.08-3.12s4.12-1.04,6.44-1.04c4.42,0,7.86,0.98,10.31,2.93c2.45,1.95,4,4.67,4.65,8.16l-7.31,1.16
		c-0.45-1.65-1.28-3.02-2.49-4.12s-2.93-1.65-5.16-1.65c-2.58,0-4.67,0.91-6.27,2.71c-1.6,1.81-2.4,4.39-2.4,7.75
		c0,3.32,0.78,5.9,2.35,7.72C201.69,62.41,203.76,63.32,206.35,63.32z"/>
	<path class="st3" d="M411.57,26.47c-1.92-15.69-16.2-26.86-31.89-24.94l0,0L220.05,21.08c2.8,1.25,5.41,2.85,7.76,4.75L380.37,7.15
		c12.59-1.54,24.05,7.42,25.59,20c1.54,12.59-7.42,24.05-20,25.59l0,0L235.5,71.17c-1.42,2.3-3.1,4.42-5.01,6.32l156.15-19.12
		C402.33,56.44,413.49,42.16,411.57,26.47z"/>
	<path class="st3" d="M176.27,71.04L26.84,52.74c-12.59-1.54-21.54-13-20-25.59c1.54-12.59,13-21.54,25.59-20l151.75,18.59
		c2.37-1.91,5-3.51,7.83-4.74L33.11,1.53C17.42-0.39,3.13,10.77,1.21,26.47c-1.92,15.69,9.24,29.97,24.94,31.89l155.08,18.99
		C179.35,75.45,177.68,73.33,176.27,71.04z"/>
</g>
</svg>
