<svg width="18" height="18" viewBox="0 0 18 18" fill="none" xmlns="http://www.w3.org/2000/svg">
<path d="M9 0C4.02943 0 0 4.02943 0 9C0 13.9706 4.02943 18 9 18C13.9706 18 18 13.9706 18 9C18 4.02943 13.9706 0 9 0ZM9 3.78699C10.447 3.78699 11.7558 4.37738 12.7002 5.32947L14.213 4.25281V9.10876L9.5658 7.55968L10.9347 6.5852C10.4048 6.1589 9.73316 5.90297 9.00003 5.90297C7.28958 5.90297 5.90298 7.28953 5.90298 9.00001C5.90298 10.7105 7.28955 12.097 9 12.097C10.1479 12.097 11.1479 11.4714 11.6829 10.5436L13.5175 11.5983C12.6172 13.1602 10.9323 14.213 9 14.213C6.12102 14.213 3.78699 11.8789 3.78699 9C3.78699 6.12105 6.12102 3.78699 9 3.78699Z" fill="#EC670D"/>
</svg>
